<svg xmlns="http://www.w3.org/2000/svg" xmlns:xlink="http://www.w3.org/1999/xlink"><defs><symbol viewBox="0 0 14 14" id="play"><path d="M12 7 5 2v10z" style="fill:currentColor" transform="translate(-1)" /></symbol><symbol viewBox="0 0 24 24" id="widget"><path d="M0 2v20h24V2zm1 1h22v18H1zm12 10.5a.5.5 0 0 0-.146-.354A.5.5 0 0 0 12.5 13h-1a.5.5 0 0 0-.354.146.5.5 0 0 0-.146.354v1c0 .133.053.26.146.354A.5.5 0 0 0 11.5 15h1c.133 0 .26-.053.354-.146A.5.5 0 0 0 13 14.5zm-7-4a.5.5 0 0 0-.146-.354A.5.5 0 0 0 5.5 9h-2a.5.5 0 0 0-.354.146A.5.5 0 0 0 3 9.5v5c0 .133.053.26.146.354A.5.5 0 0 0 3.5 15h2c.133 0 .26-.053.354-.146A.5.5 0 0 0 6 14.5zm4 0a.5.5 0 0 0-.146-.354A.5.5 0 0 0 9.5 9h-2a.5.5 0 0 0-.354.146A.5.5 0 0 0 7 9.5v5c0 .133.053.26.146.354A.5.5 0 0 0 7.5 15h2c.133 0 .26-.053.354-.146A.5.5 0 0 0 10 14.5zm7 0a.5.5 0 0 0-.146-.354A.5.5 0 0 0 16.5 9h-2a.5.5 0 0 0-.354.146A.5.5 0 0 0 14 9.5v5c0 .133.053.26.146.354A.5.5 0 0 0 14.5 15h2c.133 0 .26-.053.354-.146A.5.5 0 0 0 17 14.5zm4 0a.5.5 0 0 0-.146-.354A.5.5 0 0 0 20.5 9h-2a.5.5 0 0 0-.354.146A.5.5 0 0 0 18 9.5v5c0 .133.053.26.146.354A.5.5 0 0 0 18.5 15h2c.133 0 .26-.053.354-.146A.5.5 0 0 0 21 14.5zM5 10v4H4v-4zm4 0v4H8v-4zm7 0v4h-1v-4zm4 0v4h-1v-4zm-7-.5a.5.5 0 0 0-.146-.354A.5.5 0 0 0 12.5 9h-1a.5.5 0 0 0-.354.146A.5.5 0 0 0 11 9.5v1c0 .133.053.26.146.354A.5.5 0 0 0 11.5 11h1c.133 0 .26-.053.354-.146A.5.5 0 0 0 13 10.5z" style="fill:currentColor;fill-rule:nonzero" /></symbol></defs></svg>