<svg xmlns="http://www.w3.org/2000/svg" xmlns:xlink="http://www.w3.org/1999/xlink"><defs><symbol viewBox="0 0 24 24" id="exec-command"><path d="M23 17.836a.997.997 0 0 0-1-1H10a.997.997 0 0 0-1 1 .997.997 0 0 0 1 1h12a.997.997 0 0 0 1-1M6.954 11.468 1.293 17.13a.996.996 0 0 0 .001 1.413.995.995 0 0 0 1.413 0l6.365-6.372a1 1 0 0 0 0-1.414L2.708 4.393A1.002 1.002 0 0 0 1 5.1c0 .265.106.52.293.707z" style="fill:currentColor" /></symbol><symbol viewBox="0 0 24 24" id="widget"><path d="M0 2v20h24V2zm1 1h22v18H1zm16 12.068a.5.5 0 0 0-.146-.354.5.5 0 0 0-.354-.146h-6a.5.5 0 0 0-.354.146.504.504 0 0 0 0 .707.5.5 0 0 0 .354.147h6a.5.5 0 0 0 .5-.5m-8.023-3.184-2.831 2.831a.5.5 0 1 0 .707.706l3.183-3.185a.5.5 0 0 0 0-.707L6.854 8.346a.5.5 0 0 0-.707.708z" style="fill:currentColor;fill-rule:nonzero" /></symbol></defs></svg>