<svg xmlns="http://www.w3.org/2000/svg" xmlns:xlink="http://www.w3.org/1999/xlink"><defs><symbol viewBox="0 0 14 14" id="add-task"><path d="M11 4v4H7v2h4v4h2v-4h4V8h-4V4z" style="fill:currentColor;fill-rule:nonzero" transform="translate(-5 -2)" /></symbol><symbol viewBox="0 0 14 14" id="uncheck-all"><path d="M5 9h4v4H5zM4 8v6h6V8zm1-7h4v4H5zM4 0v6h6V0z" style="fill:currentColor;fill-rule:nonzero" /></symbol><symbol viewBox="0 0 24 24" id="widget"><path d="M0 2v20h24V2zm1 1h22v18H1zm6 11.5a.5.5 0 0 0-.146-.354A.5.5 0 0 0 6.5 14h-2a.5.5 0 0 0-.354.146A.5.5 0 0 0 4 14.5v2c0 .133.053.26.146.354A.5.5 0 0 0 4.5 17h2c.133 0 .26-.053.354-.146A.5.5 0 0 0 7 16.5zM6 15v1H5v-1zm3.5 0a.5.5 0 0 0-.354.146.504.504 0 0 0 0 .708A.5.5 0 0 0 9.5 16h10c.133 0 .26-.053.354-.146a.504.504 0 0 0 0-.708A.5.5 0 0 0 19.5 15zM7 10.5a.5.5 0 0 0-.146-.354A.5.5 0 0 0 6.5 10h-2a.5.5 0 0 0-.354.146A.5.5 0 0 0 4 10.5v2c0 .133.053.26.146.354A.5.5 0 0 0 4.5 13h2c.133 0 .26-.053.354-.146A.5.5 0 0 0 7 12.5zM6 11v1H5v-1zm3.5 0a.5.5 0 0 0-.354.146.504.504 0 0 0 0 .708A.5.5 0 0 0 9.5 12h10c.133 0 .26-.053.354-.146a.504.504 0 0 0 0-.708A.5.5 0 0 0 19.5 11zM7 6.5a.5.5 0 0 0-.146-.354A.5.5 0 0 0 6.5 6h-2a.5.5 0 0 0-.354.146A.5.5 0 0 0 4 6.5v2c0 .133.053.26.146.354A.5.5 0 0 0 4.5 9h2c.133 0 .26-.053.354-.146A.5.5 0 0 0 7 8.5zM6 7v1H5V7zm3.5 0a.5.5 0 0 0-.354.146.504.504 0 0 0 0 .708A.5.5 0 0 0 9.5 8h10c.133 0 .26-.053.354-.146a.504.504 0 0 0 0-.708A.5.5 0 0 0 19.5 7z" style="fill:currentColor;fill-rule:nonzero" /></symbol></defs></svg>