<svg xmlns="http://www.w3.org/2000/svg" xmlns:xlink="http://www.w3.org/1999/xlink"><defs><symbol viewBox="0 0 24 24" id="open-link"><path d="M10.041.001a.999.999 0 0 1 .666 1.706 1 1 0 0 1-.689.293H2v20h20v-8a.997.997 0 0 1 1-1 1 1 0 0 1 1 1v9a1 1 0 0 1-1 1H1a.997.997 0 0 1-1-1V1a1 1 0 0 1 1-1h9.041zM24 9a1 1 0 0 1-2 0V3.414L13.414 12A.999.999 0 1 1 12 10.586L20.586 2H15a1 1 0 0 1 0-2h8a1 1 0 0 1 1 1z" style="fill:currentColor" /></symbol><symbol viewBox="0 0 24 24" id="widget"><path d="M0 2v20h24V2zm1 1h22v18H1zm10.02 3a.504.504 0 0 1 .334.854.5.5 0 0 1-.345.146H7v10h10v-4c0-.133.053-.26.146-.354A.5.5 0 0 1 18 13v4.5a.5.5 0 0 1-.5.5h-11a.5.5 0 0 1-.354-.146A.5.5 0 0 1 6 17.5v-11a.5.5 0 0 1 .5-.5zM18 10.5a.5.5 0 0 1-1 0V7.707L12.707 12a.5.5 0 0 1-.707-.707L16.293 7H13.5a.5.5 0 0 1 0-1h4a.5.5 0 0 1 .5.5z" style="fill:currentColor;fill-rule:nonzero" /></symbol></defs></svg>