<svg xmlns="http://www.w3.org/2000/svg" xmlns:xlink="http://www.w3.org/1999/xlink"><defs><symbol viewBox="0 0 24 24" id="open-file"><path d="M22 5.828a2 2 0 0 0-.586-1.414L17.586.586A2 2 0 0 0 16.172 0H4a2 2 0 0 0-2 2v20a2 2 0 0 0 2 2h16a2 2 0 0 0 2-2zM14 2v4a2 2 0 0 0 2 2h4v14H4V2zm3 17a1 1 0 0 1-1 1H8a1 1 0 0 1 0-2h8a1 1 0 0 1 1 1m0-4a1 1 0 0 1-1 1H8a1 1 0 0 1 0-2h8a1 1 0 0 1 1 1m0-4a1 1 0 0 1-1 1H8a1 1 0 0 1 0-2h8a1 1 0 0 1 1 1m-5-4a.997.997 0 0 1-1 1H8a.997.997 0 0 1-1-1 .997.997 0 0 1 1-1h3a.997.997 0 0 1 1 1m8-1h-4V2z" style="fill:currentColor" /></symbol><symbol viewBox="0 0 24 24" id="open-folder"><path d="M0 21a.997.997 0 0 0 1 1h22a1 1 0 0 0 1-1V7a1 1 0 0 0-1-1H12a1 1 0 0 1-1-1V3a1 1 0 0 0-1-1H1a1 1 0 0 0-1 1zM22 8v12H2V8zM9 4v2H2V4z" style="fill:currentColor" /></symbol><symbol viewBox="0 0 24 24" id="widget"><path d="M0 2v20h24V2zm1 1h22v18H1zm16 5.914a1 1 0 0 0-.293-.707l-1.914-1.914A1 1 0 0 0 14.086 6H8a.997.997 0 0 0-1 1v10a.997.997 0 0 0 1 1h8a.997.997 0 0 0 1-1zM13 7v2a1 1 0 0 0 1 1h2v7H8V7zm1.5 8.5a.5.5 0 0 1-.5.5h-4a.5.5 0 0 1 0-1h4a.5.5 0 0 1 .5.5m0-2a.5.5 0 0 1-.5.5h-4a.5.5 0 0 1 0-1h4a.5.5 0 0 1 .5.5m0-2a.5.5 0 0 1-.5.5h-4a.5.5 0 0 1 0-1h4a.5.5 0 0 1 .5.5m-2.5-2c0 .133-.053.26-.146.354A.5.5 0 0 1 11.5 10H10a.5.5 0 0 1-.354-.146.504.504 0 0 1 0-.708A.5.5 0 0 1 10 9h1.5c.133 0 .26.053.354.146A.5.5 0 0 1 12 9.5m4-.5h-2V7z" style="fill:currentColor;fill-rule:nonzero" /></symbol></defs></svg>