<svg xmlns="http://www.w3.org/2000/svg" xmlns:xlink="http://www.w3.org/1999/xlink"><defs><symbol viewBox="0 0 14 14" id="add-14"><path d="M11 4v4H7v2h4v4h2v-4h4V8h-4V4z" style="fill:currentColor;fill-rule:nonzero" transform="translate(-5 -2)" /></symbol><symbol viewBox="0 0 14 14" id="arr-down-14"><path d="M6 5.707h4A.706.706 0 0 0 10.707 5V1a.708.708 0 0 0-1.414 0v3.293H6a.708.708 0 0 0 0 1.414" style="fill:currentColor" transform="matrix(1 1 -1 1 2 -5)" /></symbol><symbol viewBox="0 0 14 14" id="browse-14"><path d="M12 8.5c0 .828.895 1.5 2 1.5s2-.672 2-1.5S15.105 7 14 7s-2 .672-2 1.5m-6 0c0 .828.895 1.5 2 1.5s2-.672 2-1.5S9.105 7 8 7s-2 .672-2 1.5m-6 0C0 9.328.895 10 2 10s2-.672 2-1.5S3.105 7 2 7s-2 .672-2 1.5" style="fill:currentColor;fill-rule:nonzero" transform="matrix(.875 0 0 1 0 -1)" /></symbol><symbol viewBox="0 0 16 16" id="circle-question-16"><path d="M8 0c4.415 0 8 3.585 8 8s-3.585 8-8 8-8-3.585-8-8 3.585-8 8-8m0 1C4.137 1 1 4.137 1 8s3.137 7 7 7 7-3.137 7-7-3.137-7-7-7m-.989 11.226q0-.399.251-.645.252-.247.68-.247.434 0 .686.253a.87.87 0 0 1 .252.639.85.85 0 0 1-.245.622q-.245.25-.693.25-.449 0-.69-.25a.86.86 0 0 1-.241-.622m.115-2.107q0-.903.224-1.44.225-.537.887-1.179.663-.642.84-.913a1.6 1.6 0 0 0 .272-.895q0-.637-.317-.972-.315-.336-.927-.336-.585 0-.941.328-.357.329-.357.89H5.155q.013-1.203.819-1.902.805-.7 2.131-.7 1.366 0 2.13.693.765.693.765 1.936 0 1.107-1.033 2.18l-.836.822q-.448.51-.462 1.488z" style="fill:currentColor" /></symbol><symbol viewBox="0 0 14 14" id="delete-14"><path d="M2 1 1 2l2.999 3L1 8l1 1 3-2.999L8 9l1-1-2.999-3L9 2 8 1 5 3.999z" style="fill:currentColor;fill-rule:nonzero" transform="translate(.75 .75)scale(1.25)" /></symbol><symbol viewBox="0 0 14 14" id="duplicate-14"><path d="M10 4h4v10H4v-4H0V0h10zm0 4V6H8v2H6v2h2v2h2v-2h2V8zM8 4V2H2v6h2V4z" style="fill:currentColor" /></symbol><symbol viewBox="0 0 24 24" id="edit-mode-24"><path d="M3 19V3h16v16zM1 0v1H0v2h1v16H0v2h1v1h2v-1h16v1h2v-1h1v-2h-1V3h1V1h-1V0h-2v1H3V0zm10 18 2-4H9zm0-14L9 8h4zM8 9l-4 2 4 2zm6 0v4l4-2z" style="fill:none;fill-rule:nonzero;stroke:currentColor;stroke-width:1px" transform="translate(1 1)" /></symbol><symbol viewBox="0 0 150 150" id="logo-150"><path d="M0 0h150v150H0zm20 20v110h30V20zm40 40v30h30V60zm0-40v30h70V20z" style="fill-rule:nonzero;fill:currentColor" /></symbol><symbol viewBox="0 0 14 14" id="manage-14"><path d="m12.561 6.126-1.189-.198a4.5 4.5 0 0 0-.376-1.006l.761-.943a.526.526 0 0 0-.016-.679l-.473-.532a.524.524 0 0 0-.672-.096l-1.017.639a4.5 4.5 0 0 0-1.5-.677L7.88 1.439A.52.52 0 0 0 7.362 1H6.65a.52.52 0 0 0-.517.439l-.2 1.195a4.5 4.5 0 0 0-1.262.524l-.967-.69a.524.524 0 0 0-.676.057l-.503.503a.524.524 0 0 0-.056.676l.692.969c-.233.384-.41.805-.52 1.252l-1.202.201A.525.525 0 0 0 1 6.644v.712c0 .257.186.476.439.518l1.202.201c.09.368.222.72.397 1.046l-.757.938a.525.525 0 0 0 .016.679l.472.532a.525.525 0 0 0 .673.096l1.031-.648c.437.299.93.518 1.46.648l.2 1.195c.041.254.26.439.517.439h.712a.52.52 0 0 0 .518-.439l.199-1.195a4.4 4.4 0 0 0 1.247-.516l1.008.72a.524.524 0 0 0 .676-.056l.503-.504a.52.52 0 0 0 .056-.676l-.718-1.005c.234-.385.412-.807.522-1.257l1.188-.198A.524.524 0 0 0 13 7.356v-.712a.525.525 0 0 0-.439-.518M7.019 9.795a2.795 2.795 0 1 1 0-5.59 2.795 2.795 0 0 1 0 5.59" style="fill:currentColor" /></symbol><symbol viewBox="0 0 24 24" id="manage-24"><path d="m21.195 9.398-2.179-.363a8.3 8.3 0 0 0-.69-1.844l1.395-1.73a.96.96 0 0 0-.03-1.245l-.866-.975a.96.96 0 0 0-1.233-.176l-1.864 1.171a8.2 8.2 0 0 0-2.75-1.241L12.614.804a.96.96 0 0 0-.95-.804h-1.306a.96.96 0 0 0-.948.804l-.366 2.192a8.2 8.2 0 0 0-2.313.961L4.958 2.692a.96.96 0 0 0-1.24.103l-.923.923a.96.96 0 0 0-.101 1.24l1.267 1.776a8.2 8.2 0 0 0-.953 2.296l-2.204.368a.96.96 0 0 0-.804.949v1.306c0 .471.341.872.804.949l2.204.368c.166.675.408 1.32.729 1.919l-1.388 1.72a.96.96 0 0 0 .029 1.244l.866.975a.96.96 0 0 0 1.233.176l1.891-1.187c.8.547 1.705.949 2.676 1.187l.366 2.192a.96.96 0 0 0 .948.804h1.306c.472 0 .873-.34.95-.804l.365-2.192a8.2 8.2 0 0 0 2.286-.945l1.847 1.319a.96.96 0 0 0 1.239-.103l.923-.923a.96.96 0 0 0 .102-1.24l-1.315-1.843a8.2 8.2 0 0 0 .956-2.303l2.179-.364a.96.96 0 0 0 .804-.949v-1.306a.96.96 0 0 0-.805-.949M11.632 1l.36 2.159a1 1 0 0 0 .748.808c.88.215 1.695.586 2.415 1.089a1 1 0 0 0 1.105.027l1.838-1.155.825.929-1.376 1.706a1 1 0 0 0-.108 1.09 7.2 7.2 0 0 1 .605 1.619 1 1 0 0 0 .807.749l2.149.358v1.242l-2.148.358a1 1 0 0 0-.807.749 7.2 7.2 0 0 1-.839 2.022c-.207.342-.191.774.041 1.1l1.297 1.818-.877.877-1.82-1.3a1 1 0 0 0-1.098-.042 7.2 7.2 0 0 1-2.008.83 1 1 0 0 0-.748.807L11.632 21h-1.241l-.361-2.161a1 1 0 0 0-.748-.806 7.2 7.2 0 0 1-2.35-1.042 1 1 0 0 0-1.096-.021l-1.865 1.171-.825-.929 1.369-1.695a1 1 0 0 0 .103-1.101 7.2 7.2 0 0 1-.639-1.686 1 1 0 0 0-.807-.747L1 11.621v-1.242l2.172-.362c.394-.066.711-.36.807-.747a7.2 7.2 0 0 1 .837-2.017 1 1 0 0 0-.041-1.1l-1.25-1.751.877-.878L6.15 4.771a1 1 0 0 0 1.1.04 7.2 7.2 0 0 1 2.032-.844 1 1 0 0 0 .748-.806L10.391 1zm-.597 15.125a5.125 5.125 0 1 0-.003-10.25 5.125 5.125 0 0 0 .003 10.25m0-1a4.126 4.126 0 0 1 0-8.25 4.125 4.125 0 0 1 0 8.25" style="fill:currentColor" transform="translate(1 1)" /></symbol><symbol viewBox="0 0 14 14" id="maximize-14"><path d="M6 12H3.964A1.964 1.964 0 0 1 2 10.036V8H0v3.25A2.75 2.75 0 0 0 2.75 14H6zm6-4v2.036A1.964 1.964 0 0 1 10.036 12H8v2h3.25A2.75 2.75 0 0 0 14 11.25V8zM8 2h2.036C11.121 2 12 2.879 12 3.964V6h2V2.75A2.75 2.75 0 0 0 11.25 0H8zM2 3.964C2 2.879 2.879 2 3.964 2H6V0H2.75A2.75 2.75 0 0 0 0 2.75V6h2z" style="fill:currentColor;fill-rule:nonzero" /></symbol><symbol viewBox="0 0 14 14" id="more-14"><path d="M3 6a1 1 0 1 1 0 2 1 1 0 0 1 0-2m4 0a1 1 0 1 1 0 2 1 1 0 0 1 0-2m4 0a1 1 0 1 1 0 2 1 1 0 0 1 0-2" style="fill:currentColor" /></symbol><symbol viewBox="0 0 14 14" id="settings-14"><path d="M11.566 9.465 6.74 4.641a1.6 1.6 0 0 1-.465-1.257A3.142 3.142 0 0 0 2.113.173l2 1.998c.046.78-1.161 1.986-1.941 1.944L.173 2.116a3.14 3.14 0 0 0 .744 3.25 3.12 3.12 0 0 0 2.46.91c.467-.036.924.132 1.26.468l4.826 4.824a1.49 1.49 0 0 0 2.1 0 1.49 1.49 0 0 0 .005-2.103z" style="fill:currentColor;fill-rule:nonzero" transform="translate(1 1)" /></symbol><symbol viewBox="0 0 14 14" id="unmaximize-14"><path d="M10 14v-2.036c0-1.085.879-1.964 1.964-1.964H14V8h-3.25A2.75 2.75 0 0 0 8 10.75V14zm4-10h-2.036A1.964 1.964 0 0 1 10 2.036V0H8v3.25A2.75 2.75 0 0 0 10.75 6H14zM4 0v2.036A1.964 1.964 0 0 1 2.036 4H0v2h3.25A2.75 2.75 0 0 0 6 3.25V0zM0 10h2.036C3.121 10 4 10.879 4 11.964V14h2v-3.25A2.75 2.75 0 0 0 3.25 8H0z" style="fill:currentColor;fill-rule:nonzero" /></symbol></defs></svg>