<svg xmlns="http://www.w3.org/2000/svg" xmlns:xlink="http://www.w3.org/1999/xlink"><defs><symbol viewBox="0 0 14 14" id="back"><path d="M939 112.857v-.714h11.625l-5.241-1.638L947 110l8 2.5-8 2.5-1.616-.505 5.241-1.638z" style="fill:currentColor" transform="matrix(-.875 0 0 2.8 835.625 -308)" /></symbol><symbol viewBox="0 0 14 14" id="forward"><path d="M939 112.857v-.714h11.625l-5.241-1.638L947 110l8 2.5-8 2.5-1.616-.505 5.241-1.638z" style="fill:currentColor" transform="matrix(.875 0 0 2.8 -821.625 -308)" /></symbol><symbol viewBox="0 0 14 14" id="home"><path d="M10 0v1.285l2 2.285V0zM2 8v6h3v-4a2 2 0 1 1 4 0v4h3V8h2L7 0 0 8z" style="fill:currentColor;fill-rule:nonzero" /></symbol><symbol viewBox="0 0 14 14" id="open-in-browser"><path d="M5 7.5 6.5 9l5.25-5.25L14 6V0H8l2.25 2.25zM2 2h4V0H0v14h14V8h-2v4H2z" style="fill:currentColor;fill-rule:nonzero" /></symbol><symbol viewBox="0 0 14 14" id="reload"><path d="M997.535 111.465 995 114h6v-6l-2.051 2.051A6.98 6.98 0 0 0 994 108c-3.863 0-7 3.137-7 7s3.137 7 7 7a7.01 7.01 0 0 0 6.8-5.324l-1.944-.478A5.002 5.002 0 0 1 989 115c0-2.76 2.24-5 5-5 1.38 0 2.63.56 3.535 1.465" style="fill:currentColor" transform="translate(-987 -108)" /></symbol><symbol viewBox="0 0 14 14" id="reload-start"><path d="M7 0c3.863 0 7 3.137 7 7s-3.137 7-7 7-7-3.137-7-7 3.137-7 7-7m0 2C4.24 2 2 4.24 2 7s2.24 5 5 5 5-2.24 5-5-2.24-5-5-5m3 5L5 4v6z" style="fill:currentColor" /></symbol><symbol viewBox="0 0 14 14" id="reload-stop"><path d="M7 0c3.863 0 7 3.137 7 7s-3.137 7-7 7-7-3.137-7-7 3.137-7 7-7m0 2C4.24 2 2 4.24 2 7s2.24 5 5 5 5-2.24 5-5-2.24-5-5-5M6 4H4v6h2zm4 0H8v6h2z" style="fill:currentColor" /></symbol><symbol viewBox="0 0 24 24" id="widget"><path d="M0 2v20h24V2zm1 1h22v18H1z" style="fill:currentColor;fill-rule:nonzero" /><path d="M20 7.5a.5.5 0 0 0-.146-.354A.5.5 0 0 0 19.5 7h-4a.5.5 0 0 0-.354.146A.5.5 0 0 0 15 7.5v9c0 .133.053.26.146.354A.5.5 0 0 0 15.5 17h4c.133 0 .26-.053.354-.146A.5.5 0 0 0 20 16.5zM19 8v8h-3V8z" style="fill:currentColor" /><path d="M23 7.5a.5.5 0 0 0-.146-.354A.5.5 0 0 0 22.5 7h-8a.5.5 0 0 0-.354.146A.5.5 0 0 0 14 7.5v3c0 .133.053.26.146.354A.5.5 0 0 0 14.5 11h8c.133 0 .26-.053.354-.146A.5.5 0 0 0 23 10.5zM22 8v2h-7V8z" style="fill:currentColor" transform="translate(-10)" /><path d="M23 8.5a.5.5 0 0 0-.146-.354A.5.5 0 0 0 22.5 8h-8a.5.5 0 0 0-.354.146A.5.5 0 0 0 14 8.5v3c0 .133.053.26.146.354A.5.5 0 0 0 14.5 12h8c.133 0 .26-.053.354-.146A.5.5 0 0 0 23 11.5zM22 9v2h-7V9z" style="fill:currentColor" transform="translate(-10 5)" /></symbol></defs></svg>