<svg xmlns="http://www.w3.org/2000/svg" xmlns:xlink="http://www.w3.org/1999/xlink"><defs><symbol viewBox="0 0 14 14" id="query"><path d="M8.757 10.171A5.002 5.002 0 0 1 1 6c0-2.76 2.24-5 5-5a5.002 5.002 0 0 1 4.171 7.757L13 11.586 11.586 13zM6 3a3.001 3.001 0 0 0 0 6 3.001 3.001 0 0 0 0-6" style="fill:currentColor" /></symbol><symbol viewBox="0 0 24 24" id="widget"><path d="M0 2v20h24V2zm1 1h22v18H1zm19 7.5a.5.5 0 0 0-.146-.354A.5.5 0 0 0 19.5 10h-2a.5.5 0 0 0-.354.146.5.5 0 0 0-.146.354v2c0 .133.053.26.146.354A.5.5 0 0 0 17.5 13h2c.133 0 .26-.053.354-.146A.5.5 0 0 0 20 12.5zm-4 0a.5.5 0 0 0-.146-.354A.5.5 0 0 0 15.5 10h-11a.5.5 0 0 0-.354.146A.5.5 0 0 0 4 10.5v2c0 .133.053.26.146.354A.5.5 0 0 0 4.5 13h11c.133 0 .26-.053.354-.146A.5.5 0 0 0 16 12.5zm3 .5v1h-1v-1zm-4 0v1H5v-1z" style="fill:currentColor;fill-rule:nonzero" /></symbol></defs></svg>